<svg width="33" height="23" viewBox="0 0 33 23" fill="none" xmlns="http://www.w3.org/2000/svg">
<path d="M32.3104 3.59872C31.9309 2.18218 30.8127 1.06657 29.3929 0.687964C26.8194 0 16.5 0 16.5 0C16.5 0 6.18066 0 3.60711 0.687964C2.18731 1.06662 1.06909 2.18218 0.689567 3.59872C0 6.16628 0 11.5232 0 11.5232C0 11.5232 0 16.8802 0.689567 19.4478C1.06909 20.8643 2.18731 21.9334 3.60711 22.312C6.18066 23 16.5 23 16.5 23C16.5 23 26.8193 23 29.3929 22.312C30.8127 21.9334 31.9309 20.8643 32.3104 19.4478C33 16.8802 33 11.5232 33 11.5232C33 11.5232 33 6.16628 32.3104 3.59872V3.59872ZM13.125 16.387V6.65952L21.7499 11.5234L13.125 16.387V16.387Z" fill="#C2BCBC"/>
</svg>
